:FULLY-SPECIFIED
:DEGREES
1
root 9.297450065612793 17.358600616455078 -29.82110023498535 90.00000933466734 -0.0 -0.0
lhipjoint -5.528973971617621e-07 -1.7075472925031877e-06 5.635377011264426e-07
lfemur 19.628515674512602 23.663253558759 2.2463860387673713
ltibia 19.385514619316474 -8.358514006242096 6.323562449647994
lfoot -9.310597980312268 9.82184788497148 3.357990361563661
ltoes -11.380021501647427 4.8522526175153295 3.728102944761019
rhipjoint -1.4590168159163821e-06 -1.2806604693773908e-06 -1.1362305144035093e-07
rfemur -20.56275748692341 -22.778375231027166 9.26902091128711
rtibia 13.479088897754085 5.5595123027678035 -4.672893130571264
rfoot -4.303145962494502 1.4406151754460386 -1.5114040030559912
rtoes -7.980471573418353 -3.31428141974381 -2.706100458591542
lowerback 5.924582925697223 5.750033599476139 -1.625144475261569
upperback 1.0824568106783774 -1.4623838421045154 -2.489363615188228
thorax -1.9431933011802704 -4.937873307629671 -1.2073462860435318
lowerneck -17.894962436744592 8.030196204349693 -4.417121329174504
upperneck 20.009867333989217 -4.207287672587958 -4.848679574805767
head 9.444199041798656 -2.145199774421394 -2.4016757256329
lclavicle -1.1905593500282093e-07 5.336085289072462e-08 1.7916324053945998e-07
lhumerus -80.95580068481661 -22.653847222079495 -8.42957956323514
lradius -7.04102900495784e-07 -7.745503038018295e-07 33.222822179601984
lwrist -4.856947702973083e-07 -6.678407425616259 6.659508494253191e-07
lhand -19.299768424476134 -7.0659135124218775 -19.354783890693295
lfingers -9.414104972780149e-07 5.958838404591767e-07 7.125023250159637
lthumb -40.84924406720356 -32.54163033820369 18.438420098434996
rclavicle -2.343282567121354e-08 -1.5207843073856516e-06 -8.563986979746117e-08
rhumerus -71.14499892328034 28.236912151539617 33.895141605268435
rradius 2.2289667129477905e-09 1.1747946126940672e-06 -25.41159415608009
rwrist -5.420627994727005e-07 11.258499629708206 4.667381555070367e-07
rhand 12.304463700146558 -2.8343927555455375 12.77360975744087
rfingers -4.6239122781278693e-07 1.3831930793101032e-07 -7.125021115725521
rthumb -8.24237603091614 16.68456241581183 -11.802064013104392
2
root 9.242219924926758 17.38300132751465 -29.07090187072754 90.00000933466734 -0.0 -0.0
lhipjoint -5.528973971617621e-07 -1.7075472925031877e-06 5.635377011264426e-07
lfemur 20.04154916645432 23.14324393648925 1.9685892251748474
ltibia 23.261534275177407 -10.29051326770295 7.255564813784683
lfoot -5.081836192973792 10.034127603054536 2.078575547936151
ltoes -16.05553955929409 7.074963086185321 4.9924362738143175
rhipjoint -1.4590168159163821e-06 -1.2806604693773908e-06 -1.1362305144035093e-07
rfemur -18.741852959860108 -22.82387795127779 9.689364413188034
rtibia 16.36603995896287 6.903758845110251 -5.5131856909485455
rfoot -0.33454202521698984 -3.200178840790516 -0.15263423738227494
rtoes 1.790124706455465 0.6815681421328821 0.6608165333305024
lowerback 6.68881151126948 6.029746921461086 -2.1716712397668365
upperback 0.6014014647925019 -1.972222458926471 -3.2791373216997446
thorax -2.7605603316084038 -5.746102398721973 -1.555017428949167
lowerneck -16.184619889323578 9.44794966942664 -3.695911836315926
upperneck 19.714169661799147 -4.4823201805573305 -3.680998118263203
head 9.015112897760115 -2.6441369824411862 -1.9547100673379698
lclavicle -1.1905593500282093e-07 5.336085289072462e-08 1.7916324053945998e-07
lhumerus -80.85803335703704 -24.791875724759198 -10.956864815582103
lradius -7.466034059267459e-07 -2.5494740086772664e-06 32.55782130163121
lwrist -3.9666318243197194e-07 -5.49560990666681 5.469269108025938e-07
lhand -39.08444271398274 -7.764695652253896 -9.444053046505148
lfingers -9.414104972780149e-07 5.958838404591767e-07 7.125023250159637
lthumb -63.40782210319242 -35.85100042504744 39.133152208048685
rclavicle -2.343282567121354e-08 -1.5207843073856516e-06 -8.563986979746117e-08
rhumerus -69.35318075679753 29.17715428513628 33.88938034070353
rradius 7.02873450722555e-08 1.1719729263584226e-06 -24.22620458034062
rwrist -5.770185711993568e-07 12.023603760154694 4.921958240662198e-07
rhand 13.447022013374522 -3.1176236249530414 12.814474779245055
rfingers -4.6239122781278693e-07 1.3831930793101032e-07 -7.125021115725521
rthumb -7.25228546920943 16.00160838560767 -11.43638251513108
3
root 9.210040092468262 17.472200393676758 -28.320301055908203 90.00000933466734 -0.0 -0.0
lhipjoint -5.528973971617621e-07 -1.7075472925031877e-06 5.635377011264426e-07
lfemur 16.658665753573725 21.380185989054073 1.0670833355171483
ltibia 29.577283842188553 -13.5628022575427 8.496586280313904
lfoot 3.1508563372465614 8.516299913805854 -0.9661427445378801
ltoes -16.623777147293303 7.352802801903569 5.134390656655631
rhipjoint -1.4590168159163821e-06 -1.2806604693773908e-06 -1.1362305144035093e-07
rfemur -15.904617991846196 -25.209922575551705 9.494576809569379
rtibia 17.79161484441313 7.5846732100735155 -5.90472543134588
rfoot 0.17786114087532037 -0.6201143154884857 0.06369440883663822
rtoes -1.589756731563204 -0.6249247963765845 -0.5711190740553099
lowerback 7.181382129209174 3.7614351216843276 -2.166697367947186
upperback 0.16725280321744596 -2.7693789596005365 -3.0925135016865473
thorax -3.6011032611074483 -5.32243771733713 -1.4500186383858535
lowerneck -15.155462353111687 9.58945411355638 -3.6751933112423387
upperneck 20.268577824276377 -3.761331388186308 -3.5712036811288943
head 9.016980100724469 -2.4459663007492596 -2.0135991045881734
lclavicle -1.1905593500282093e-07 5.336085289072462e-08 1.7916324053945998e-07
lhumerus -82.13955443024986 -27.104680230563066 -10.055939812168972
lradius -8.942661275677418e-07 -1.520740950064234e-06 31.978115826015543
lwrist 7.022062975725712e-08 1.0076984692218838 -9.97099503473352e-08
lhand -24.179761001531826 -8.467514433885391 -18.157045332934445
lfingers -9.414104972780149e-07 5.958838404591767e-07 7.125023250159637
lthumb -46.350862405905865 -34.57240950298856 22.04044159309899
rclavicle -2.343282567121354e-08 -1.5207843073856516e-06 -8.563986979746117e-08
rhumerus -67.70698905360857 29.747707307264125 35.270208949353744
rradius 9.104613211724732e-08 1.1709164733154277e-06 -23.867399375314218
rwrist -5.970215121465175e-07 12.463005197387247 5.064772270302396e-07
rhand 10.699820037678782 -2.5598507405359365 13.299245748039418
rfingers -4.6239122781278693e-07 1.3831930793101032e-07 -7.125021115725521
rthumb -9.804125251622589 17.418203279846654 -11.865903229955562
4
root 9.139169692993164 17.542499542236328 -27.539499282836914 90.00000933466734 -0.0 -0.0
lhipjoint -5.528973971617621e-07 -1.7075472925031877e-06 5.635377011264426e-07
lfemur 11.650806058839875 19.493431608202677 0.4094995360568981
ltibia 36.29089875854211 -17.149389232229755 9.413204497118786
lfoot 14.834163424365117 6.9578966320190645 -6.11490913512739
ltoes -13.280117803268798 5.741355417248815 4.262262584556921
rhipjoint -1.4590168159163821e-06 -1.2806604693773908e-06 -1.1362305144035093e-07
rfemur -12.360513086249329 -27.33458781312028 9.178119631170702
rtibia 18.79181067099687 8.068771405234632 -6.169919478702672
rfoot 0.9447490979535191 -0.5258059982758586 0.3460904343604534
rtoes 8.181204002935859 2.916265379352834 3.1612907318642254
lowerback 6.684406893028468 2.1845529765414806 -2.211761675430461
upperback 0.4835263802615392 -3.3447372332528973 -3.0010702887481817
thorax -3.0569361135170086 -4.983244973625596 -1.4450621622042457
lowerneck -15.493705273641767 9.377121461507254 -3.9452854580076764
upperneck 20.314705506836056 -3.4715725654795646 -3.897981702250284
head 9.103264172961946 -2.2669683869443813 -2.178733015038395
lclavicle -1.1905593500282093e-07 5.336085289072462e-08 1.7916324053945998e-07
lhumerus -81.18732360711253 -27.155513913460886 -14.12573278855681
lradius -1.4938283685715621e-06 -2.1499505406980355e-06 30.755812492906742
lwrist -4.2329714733454743e-07 -5.851503743559494 5.826734956452491e-07
lhand -31.296602965726255 -8.19629103703877 -13.197895132266538
lfingers -9.414104972780149e-07 5.958838404591767e-07 7.125023250159637
lthumb -54.32032029928757 -35.684053526259405 30.835510555237036
rclavicle -2.343282567121354e-08 -1.5207843073856516e-06 -8.563986979746117e-08
rhumerus -67.18019022330382 29.321985031391815 36.42262237178039
rradius -4.950159837356173e-07 1.934692635411581e-06 -23.544305814363227
rwrist -6.300498677362069e-07 13.19089760346186 5.295946688992392e-07
rhand 11.240866642592172 -2.6118259187987944 12.913725965621802
rfingers -4.6239122781278693e-07 1.3831930793101032e-07 -7.125021115725521
rthumb -9.22112506350604 17.246104710877137 -12.009437947816087
5
root 9.089579582214355 17.625600814819336 -26.82760238647461 90.00000933466734 -0.0 -0.0
lhipjoint -5.528973971617621e-07 -1.7075472925031877e-06 5.635377011264426e-07
lfemur 6.125997520358083 19.687064056077954 -1.2673019000213153
ltibia 43.216618369381244 -20.88278600048436 9.899873404728766
lfoot 24.383616535047317 7.2854366461197335 -10.9530843058765
ltoes -2.5405740257074565 1.007335615422227 0.9053859707147952
rhipjoint -1.4590168159163821e-06 -1.2806604693773908e-06 -1.1362305144035093e-07
rfemur -8.580138276883378 -27.97196740608753 8.5816818996358
rtibia 18.84556938240675 8.094931883529426 -6.183948260371055
rfoot -0.3784943992477277 0.17603518585025266 -0.13736997854669972
rtoes 7.085704839315635 2.5557786671301392 2.7179604417550345
lowerback 7.318703936245926 1.560195566113683 -2.0876155167460744
upperback 0.30386028185676367 -3.4818093114981212 -2.778175176034455
thorax -3.6372213014384758 -4.7910285093426275 -1.326440879506459
lowerneck -16.34642707076118 9.53650904843138 -3.907304056693705
upperneck 21.231089789661866 -4.138028273743559 -3.8879366284153107
head 9.583075570645233 -2.5234936435839583 -2.1181976887548064
lclavicle -1.1905593500282093e-07 5.336085289072462e-08 1.7916324053945998e-07
lhumerus -81.3187569373111 -28.23842674598807 -14.897436589288823
lradius -6.109282712134984e-07 -2.338391026687888e-06 30.254606381422036
lwrist -3.5486957436229345e-07 -4.933648835628018 4.905899747297675e-07
lhand -29.61272569379175 -7.3745552468627675 -12.725592673802034
lfingers -9.414104972780149e-07 5.958838404591767e-07 7.125023250159637
lthumb -52.187009749777054 -35.011676043985005 30.361444200419374
rclavicle -2.343282567121354e-08 -1.5207843073856516e-06 -8.563986979746117e-08
rhumerus -66.9346380924527 29.78602808360248 36.407305672566636
rradius -5.244448165367632e-07 1.9343620612802082e-06 -23.991599535181727
rwrist -6.010438197077585e-07 12.551495420726638 5.093238489145869e-07
rhand 12.043936379540176 -2.608028973950502 12.039123657496255
rfingers -4.6239122781278693e-07 1.3831930793101032e-07 -7.125021115725521
rthumb -8.2697855800554 17.112548899394 -12.461517923695476
